<?xml version="1.0" encoding="UTF-8" standalone="no"?><!-- Generator: Gravit.io --><svg xmlns="http://www.w3.org/2000/svg" xmlns:xlink="http://www.w3.org/1999/xlink" style="isolation:isolate" viewBox="0 0 512 512" width="512pt" height="512pt"><defs><clipPath id="_clipPath_UgXyG5f0Oj83y3yWXxPD7cQQpSNLzlPI"><rect width="512" height="512"/></clipPath></defs><g clip-path="url(#_clipPath_UgXyG5f0Oj83y3yWXxPD7cQQpSNLzlPI)"><g style="isolation:isolate"><path d=" M 26 19 C 83.646 22.546 141.323 45.889 199 89 C 237.662 82.328 275.015 82.348 311 89 C 363.64 53.271 421.984 29.948 486 19 C 491.895 51.625 494.905 100.302 495 165 C 547 333 460 494 264 505 C 72.194 505.781 -34.796 359.792 15 165 C 13.552 108.62 17.238 59.973 26 19 Z " fill="rgb(255,192,74)"/><ellipse vector-effect="non-scaling-stroke" cx="113.50000000000001" cy="240" rx="99.50000000000001" ry="98" fill="rgb(255,255,255)" stroke-width="10" stroke="rgb(252,170,22)" stroke-linejoin="miter" stroke-linecap="square" stroke-miterlimit="3"/><ellipse vector-effect="non-scaling-stroke" cx="398.5" cy="246" rx="99.5" ry="98" fill="rgb(255,255,255)" stroke-width="10" stroke="rgb(252,170,22)" stroke-linejoin="miter" stroke-linecap="square" stroke-miterlimit="3"/><path d=" M 30.891 169 C 26.868 139.023 26.878 99.033 30.891 49 C 64.225 68.667 92.235 91.677 114.891 118 C 83.374 130.557 55.384 147.567 30.891 169 Z " fill="rgb(252,170,22)"/><path d=" M 56.26 143 C 54.758 131.509 54.761 116.179 56.26 97 C 68.71 104.539 79.172 113.359 87.635 123.45 C 75.863 128.264 65.408 134.784 56.26 143 Z " fill="rgb(255,192,74)"/><path d=" M 398 121 C 415 98.667 439.343 75.677 471 52 C 479.667 92 483.01 132.01 481 172 C 452.334 149.365 424.677 132.375 398 121 Z " fill="rgb(252,170,22)"/><path d=" M 428 120.83 C 434.815 111.122 444.574 101.128 457.264 90.836 C 460.739 108.224 462.079 125.616 461.273 143 C 449.781 133.16 438.694 125.775 428 120.83 Z " fill="rgb(255,192,74)"/><path d=" M 139 112 L 159 143 C 170 130 180.343 112.343 190 90 C 166.667 98.667 149.677 106.01 139 112 Z " fill="rgb(252,170,22)"/><path d=" M 253.867 171.449 C 235.483 127.894 208.476 100.99 210.867 89.449 C 212.622 80.979 246.277 80.604 301.867 87.449 C 287.2 121.449 271.21 150.793 253.867 171.449 Z " fill="rgb(252,170,22)"/><path d=" M 254.577 308 C 317.077 304.75 293.077 356.5 254.577 357 C 206.077 349 200.077 305.5 254.577 308 Z " fill="rgb(0,0,0)"/><path d=" M 322 90 C 332.708 112.582 343.052 130.259 353 143 L 374 112 C 363.197 104.501 345.873 97.178 322 90 Z " fill="rgb(252,170,22)"/><path d=" M 142.813 415.972 C 145.812 376.636 368.822 377.646 369.813 415.972 C 368.813 456.972 314.813 482.972 257.813 481.972 C 203.813 481.972 142.813 457.972 142.813 415.972 Z " fill="rgb(0,0,0)"/><path d=" M 314.313 463.293 C 275.574 469.577 236.897 469.561 198.313 463.293 C 245.49 424.817 284.137 424.785 314.313 463.293 Z " fill="rgb(252,22,22)" vector-effect="non-scaling-stroke" stroke-width="1" stroke="rgb(0,0,0)" stroke-linejoin="miter" stroke-linecap="square" stroke-miterlimit="3"/></g><ellipse vector-effect="non-scaling-stroke" cx="109.2533540947324" cy="237.99999999999994" rx="35.2533540947324" ry="33.999999999999986" fill="rgb(0,0,0)"/><ellipse vector-effect="non-scaling-stroke" cx="403.25335409473246" cy="237.99999999999994" rx="35.2533540947324" ry="33.999999999999986" fill="rgb(0,0,0)"/></g></svg>